# xmcd
#
# Track frame offsets:
# 150
# 19044
# 34920
# 52938
# 63717
# 78382
# 97283
# 114288
# 127956
# 146816
# 171097
# 188512
#
# Disc length: 2776 seconds
#
#
# Revision: 0
# Processed by: cddbd v1.5.1PL0 Copyright (c) Steve Scherf et al.
# Submitted via: FreeRIP 2.942 
#
DISCID=a00ad60c
DTITLE=Jay Kirgis - Oxford Blues
DYEAR=2000
DGENRE=Blues
TTITLE0=Oxford Blues
TTITLE1=Walk
TTITLE2=Somethin'
TTITLE3=Blown My Mind
TTITLE4=Bad Girl
TTITLE5=T-Rex
TTITLE6=My Milkcow
TTITLE7=Big Eyes
TTITLE8=See Me Run
TTITLE9=Money, Money
TTITLE10=Say What You Want
TTITLE11=Discount Man
EXTD=
EXTT0=
EXTT1=
EXTT2=
EXTT3=
EXTT4=
EXTT5=
EXTT6=
EXTT7=
EXTT8=
EXTT9=
EXTT10=
EXTT11=
PLAYORDER=
